<?xml version="1.0" encoding="UTF-8" standalone="no"?>
<!-- Created with Inkscape (http://www.inkscape.org/) -->

<svg
   version="1.1"
   id="svg1"
   width="1050"
   height="600"
   viewBox="0 0 1050 600"
   sodipodi:docname="thumbnail.svg"
   inkscape:version="1.4.3 (0d15f75, 2025-12-25)"
   xmlns:inkscape="http://www.inkscape.org/namespaces/inkscape"
   xmlns:sodipodi="http://sodipodi.sourceforge.net/DTD/sodipodi-0.dtd"
   xmlns:xlink="http://www.w3.org/1999/xlink"
   xmlns="http://www.w3.org/2000/svg"
   xmlns:svg="http://www.w3.org/2000/svg">
  <defs
     id="defs1">
    <linearGradient
       id="linearGradient4"
       inkscape:collect="always">
      <stop
         style="stop-color:#3d3846;stop-opacity:1"
         offset="0"
         id="stop5" />
      <stop
         style="stop-color:#000000;stop-opacity:1"
         offset="1"
         id="stop6" />
    </linearGradient>
    <linearGradient
       id="linearGradient2"
       inkscape:collect="always">
      <stop
         style="stop-color:#ffffff;stop-opacity:1;"
         offset="0"
         id="stop2" />
      <stop
         style="stop-color:#fefefe;stop-opacity:0;"
         offset="0.5"
         id="stop4" />
      <stop
         style="stop-color:#ffffff;stop-opacity:1;"
         offset="1"
         id="stop3" />
    </linearGradient>
    <linearGradient
       inkscape:collect="always"
       xlink:href="#linearGradient2"
       id="linearGradient3"
       x1="151.43556"
       y1="-76.564407"
       x2="893.89771"
       y2="665.89771"
       gradientUnits="userSpaceOnUse" />
    <linearGradient
       inkscape:collect="always"
       xlink:href="#linearGradient4"
       id="linearGradient6"
       x1="520.70459"
       y1="5.111496"
       x2="522.66663"
       y2="819.66663"
       gradientUnits="userSpaceOnUse" />
    <radialGradient
       inkscape:collect="always"
       xlink:href="#linearGradient4-0"
       id="radialGradient1"
       cx="37.809212"
       cy="31.332991"
       fx="37.809212"
       fy="31.332991"
       r="128"
       gradientUnits="userSpaceOnUse"
       gradientTransform="matrix(3.6495216,4.4212975,-4.5264534,3.7363213,9.3949722,-278.3572)" />
    <linearGradient
       id="linearGradient4-0"
       inkscape:collect="always">
      <stop
         style="stop-color:#f6f5f4;stop-opacity:1"
         offset="0"
         id="stop4-5" />
      <stop
         style="stop-color:#dcdcdc;stop-opacity:1;"
         offset="0.22703545"
         id="stop1-2" />
      <stop
         style="stop-color:#3d3846;stop-opacity:1"
         offset="1"
         id="stop5-7" />
    </linearGradient>
  </defs>
  <sodipodi:namedview
     id="namedview1"
     pagecolor="#ffffff"
     bordercolor="#000000"
     borderopacity="0.25"
     inkscape:showpageshadow="2"
     inkscape:pageopacity="0.0"
     inkscape:pagecheckerboard="0"
     inkscape:deskcolor="#d1d1d1"
     inkscape:zoom="0.50967352"
     inkscape:cx="623.92882"
     inkscape:cy="360.0344"
     inkscape:window-width="1470"
     inkscape:window-height="894"
     inkscape:window-x="0"
     inkscape:window-y="34"
     inkscape:window-maximized="1"
     inkscape:current-layer="g4" />
  <g
     inkscape:groupmode="layer"
     inkscape:label="Image"
     id="g1"
     transform="translate(2.333374,5.3333435)">
    <rect
       style="opacity:1;fill:url(#linearGradient6);stroke-width:2;stroke-linecap:round;stroke-linejoin:round"
       id="rect1"
       width="1050"
       height="600"
       x="-2.333374"
       y="-5.3333435"
       rx="30"
       ry="30" />
    <g
       id="g5"
       transform="translate(-4.5814736,-65.333343)">
      <g
         id="g2"
         transform="translate(150,232)">
        <rect
           style="fill:url(#radialGradient1);stroke-width:3.77953;stroke-linecap:round;stroke-linejoin:round"
           id="rect1-7"
           width="256"
           height="256"
           x="0"
           y="0"
           rx="50"
           ry="50" />
        <path
           id="path1"
           style="baseline-shift:baseline;display:inline;overflow:visible;opacity:1;vector-effect:none;fill:#241f31;stroke-linecap:round;stroke-linejoin:round;enable-background:accumulate;stop-color:#000000;stop-opacity:1"
           d="m 102,84 c -9.893747,0 -18,8.106253 -18,18 0,9.89375 8.106253,18 18,18 h 10 v 16 h -10 c -9.893747,0 -18,8.10625 -18,18 0,9.89375 8.106253,18 18,18 9.89375,0 18,-8.10625 18,-18 v -10 h 16 v 10 c 0,9.89375 8.10625,18 18,18 9.89375,0 18,-8.10625 18,-18 0,-9.89375 -8.10625,-18 -18,-18 h -10 v -16 h 10 c 9.89375,0 18,-8.10625 18,-18 0,-9.893747 -8.10625,-18 -18,-18 -9.89375,0 -18,8.106253 -18,18 v 10 h -16 v -10 c 0,-9.893747 -8.10625,-18 -18,-18 z m 0,8 c 5.57023,0 10,4.429774 10,10 v 10 h -10 c -5.570226,0 -10,-4.42977 -10,-10 0,-5.570226 4.429774,-10 10,-10 z m 52,0 c 5.57023,0 10,4.429774 10,10 0,5.57023 -4.42977,10 -10,10 h -10 v -10 c 0,-5.570226 4.42977,-10 10,-10 z m -34,28 h 16 v 16 h -16 z m -18,24 h 10 v 10 c 0,5.57023 -4.42977,10 -10,10 -5.570226,0 -10,-4.42977 -10,-10 0,-5.57023 4.429774,-10 10,-10 z m 42,0 h 10 c 5.57023,0 10,4.42977 10,10 0,5.57023 -4.42977,10 -10,10 -5.57023,0 -10,-4.42977 -10,-10 z" />
      </g>
      <g
         id="g4"
         transform="translate(-59.340074,67.606472)">
        <text
           xml:space="preserve"
           style="font-style:normal;font-variant:normal;font-weight:bold;font-stretch:normal;font-size:64px;font-family:'AdwaitaMono Nerd Font Propo';-inkscape-font-specification:'AdwaitaMono Nerd Font Propo, Bold';font-variant-ligatures:normal;font-variant-caps:normal;font-variant-numeric:normal;font-variant-east-asian:normal;writing-mode:lr-tb;direction:ltr;opacity:1;fill:#ffffff;fill-opacity:1;stroke:none;stroke-width:16;stroke-linecap:round;stroke-linejoin:round"
           x="510.04398"
           y="282.82059"
           id="text3"><tspan
             sodipodi:role="line"
             id="tspan3"
             x="510.04398"
             y="282.82059">App Name</tspan></text>
        <text
           xml:space="preserve"
           style="font-style:normal;font-variant:normal;font-weight:bold;font-stretch:normal;font-size:42.6667px;font-family:'AdwaitaMono Nerd Font Propo';-inkscape-font-specification:'AdwaitaMono Nerd Font Propo, Bold';font-variant-ligatures:normal;font-variant-caps:normal;font-variant-numeric:normal;font-variant-east-asian:normal;writing-mode:lr-tb;direction:ltr;opacity:1;fill:#ffffff;fill-opacity:1;stroke:none;stroke-width:16;stroke-linecap:round;stroke-linejoin:round"
           x="512.49719"
           y="363.35318"
           id="text4"><tspan
             sodipodi:role="line"
             id="tspan4"
             x="512.49719"
             y="363.35318">MTI Apps</tspan></text>
      </g>
    </g>
    <rect
       style="opacity:0.5;stroke:url(#linearGradient3);stroke-width:2;stroke-linecap:round;stroke-linejoin:round;stroke-opacity:1;fill:none"
       id="rect2"
       width="1048"
       height="598"
       x="-1.333374"
       y="-4.3333435"
       rx="30"
       ry="30" />
  </g>
</svg>
