<?xml version="1.0" encoding="UTF-8" standalone="no"?>
<!-- Created with Inkscape (http://www.inkscape.org/) -->

<svg
   version="1.1"
   id="svg1"
   width="256"
   height="256"
   viewBox="0 0 256 256"
   sodipodi:docname="huntarr.svg"
   inkscape:version="1.4.3 (0d15f75, 2025-12-25)"
   xmlns:inkscape="http://www.inkscape.org/namespaces/inkscape"
   xmlns:sodipodi="http://sodipodi.sourceforge.net/DTD/sodipodi-0.dtd"
   xmlns:xlink="http://www.w3.org/1999/xlink"
   xmlns="http://www.w3.org/2000/svg"
   xmlns:svg="http://www.w3.org/2000/svg">
  <defs
     id="defs1">
    <inkscape:path-effect
       effect="fillet_chamfer"
       id="path-effect20"
       is_visible="true"
       lpeversion="1"
       nodesatellites_param="F,0,0,1,0,0,0,1 @ F,0,1,1,0,3,0,1 @ F,0,0,1,0,0,0,1 @ F,0,0,1,0,0,0,1 @ F,0,1,1,0,3,0,1 @ F,0,0,1,0,0,0,1 @ F,0,0,1,0,0,0,1 @ F,0,0,1,0,0,0,1 @ F,0,0,1,0,0,0,1 @ F,0,1,1,0,3,0,1 @ F,0,0,1,0,0,0,1 @ F,0,0,1,0,0,0,1 @ F,0,0,1,0,0,0,1 @ F,0,0,1,0,0,0,1 @ F,0,1,1,0,3,0,1 @ F,0,1,1,0,3,0,1 @ F,0,0,1,0,0,0,1 @ F,0,0,1,0,0,0,1 @ F,0,0,1,0,0,0,1 @ F,0,0,1,0,0,0,1 @ F,0,1,1,0,3,0,1 @ F,0,1,1,0,3,0,1 @ F,0,0,1,0,0,0,1 @ F,0,0,1,0,0,0,1 @ F,0,0,1,0,0,0,1 @ F,0,0,1,0,0,0,1 @ F,0,1,1,0,3,0,1 @ F,0,0,1,0,0,0,1 @ F,0,0,1,0,0,0,1 @ F,0,0,1,0,0,0,1 @ F,0,0,1,0,0,0,1 @ F,0,1,1,0,3,0,1 @ F,0,0,1,0,0,0,1 @ F,0,0,1,0,0,0,1 @ F,0,1,1,0,3,0,1 @ F,0,0,1,0,0,0,1 @ F,0,0,1,0,0,0,1 @ F,0,0,1,0,0,0,1 | F,0,1,1,0,3,0,1 @ F,0,1,1,0,3,0,1 @ F,0,1,1,0,3,0,1 | F,0,1,1,0,3,0,1 @ F,0,1,1,0,3,0,1 @ F,0,1,1,0,3,0,1"
       radius="4"
       unit="px"
       method="auto"
       mode="F"
       chamfer_steps="1"
       flexible="false"
       use_knot_distance="true"
       apply_no_radius="true"
       apply_with_radius="true"
       only_selected="true"
       hide_knots="false" />
    <inkscape:path-effect
       effect="fillet_chamfer"
       id="path-effect19"
       is_visible="true"
       lpeversion="1"
       nodesatellites_param="F,0,1,1,0,5,0,1 @ F,0,0,1,0,0,0,1 @ F,0,0,1,0,0,0,1 @ F,0,0,1,0,0,0,1 @ F,0,0,1,0,0,0,1 @ F,0,1,1,0,5,0,1 @ F,0,1,1,0,5,0,1 @ F,0,0,1,0,0,0,1 @ F,0,1,1,0,5,0,1 @ F,0,1,1,0,5,0,1 @ F,0,0,1,0,0,0,1 @ F,0,0,1,0,0,0,1 @ F,0,1,1,0,5,0,1 @ F,0,1,1,0,5,0,1 @ F,0,0,1,0,0,0,1 @ F,0,0,1,0,0,0,1 @ F,0,1,1,0,5,0,1 @ F,0,1,1,0,5,0,1 @ F,0,0,1,0,0,0,1 @ F,0,1,1,0,5,0,1 @ F,0,1,1,0,5,0,1 @ F,0,0,1,0,0,0,1 @ F,0,0,1,0,0,0,1 @ F,0,0,1,0,0,0,1 @ F,0,0,1,0,0,0,1 @ F,0,1,1,0,5,0,1 | F,0,0,1,0,0,0,1 @ F,0,0,1,0,0,0,1 @ F,0,0,1,0,0,0,1 | F,0,0,1,0,0,0,1 @ F,0,0,1,0,0,0,1 @ F,0,0,1,0,0,0,1"
       radius="5"
       unit="px"
       method="auto"
       mode="F"
       chamfer_steps="1"
       flexible="false"
       use_knot_distance="true"
       apply_no_radius="true"
       apply_with_radius="true"
       only_selected="true"
       hide_knots="false" />
    <inkscape:path-effect
       effect="fillet_chamfer"
       id="path-effect18"
       is_visible="true"
       lpeversion="1"
       nodesatellites_param="F,0,0,1,0,0,0,1 @ F,0,0,1,0,0,0,1 @ F,0,1,1,0,20,0,1 @ F,0,0,1,0,0,0,1 @ F,0,0,1,0,0,0,1 @ F,0,0,1,0,0,0,1 @ F,0,0,1,0,0,0,1 @ F,0,0,1,0,0,0,1 @ F,0,0,1,0,0,0,1 @ F,0,0,1,0,0,0,1 @ F,0,0,1,0,0,0,1 @ F,0,0,1,0,0,0,1 @ F,0,0,1,0,0,0,1 @ F,0,0,1,0,0,0,1 @ F,0,0,1,0,0,0,1 @ F,0,0,1,0,0,0,1 @ F,0,0,1,0,0,0,1 @ F,0,0,1,0,0,0,1 @ F,0,0,1,0,0,0,1 @ F,0,0,1,0,0,0,1 @ F,0,0,1,0,0,0,1 @ F,0,1,1,0,20,0,1 @ F,0,0,1,0,0,0,1 @ F,0,0,1,0,0,0,1 | F,0,0,1,0,0,0,1 @ F,0,0,1,0,0,0,1 @ F,0,0,1,0,0,0,1 | F,0,0,1,0,0,0,1 @ F,0,0,1,0,0,0,1 @ F,0,0,1,0,0,0,1"
       radius="20"
       unit="px"
       method="auto"
       mode="F"
       chamfer_steps="1"
       flexible="false"
       use_knot_distance="true"
       apply_no_radius="true"
       apply_with_radius="true"
       only_selected="true"
       hide_knots="false" />
    <linearGradient
       id="linearGradient4"
       inkscape:collect="always">
      <stop
         style="stop-color:#f6f5f4;stop-opacity:1"
         offset="0"
         id="stop4" />
      <stop
         style="stop-color:#dcdcdc;stop-opacity:1;"
         offset="0.22703545"
         id="stop1" />
      <stop
         style="stop-color:#154e35;stop-opacity:1;"
         offset="1"
         id="stop5" />
    </linearGradient>
    <radialGradient
       inkscape:collect="always"
       xlink:href="#linearGradient4"
       id="radialGradient1"
       cx="37.809212"
       cy="31.332991"
       fx="37.809212"
       fy="31.332991"
       r="128"
       gradientUnits="userSpaceOnUse"
       gradientTransform="matrix(3.6495216,4.4212975,-4.5264534,3.7363213,9.3949722,-278.3572)" />
  </defs>
  <sodipodi:namedview
     id="namedview1"
     pagecolor="#ffffff"
     bordercolor="#000000"
     borderopacity="0.25"
     inkscape:showpageshadow="2"
     inkscape:pageopacity="0.0"
     inkscape:pagecheckerboard="0"
     inkscape:deskcolor="#d1d1d1"
     showguides="true"
     inkscape:zoom="0.78453512"
     inkscape:cx="195.01995"
     inkscape:cy="342.24089"
     inkscape:window-width="1470"
     inkscape:window-height="894"
     inkscape:window-x="0"
     inkscape:window-y="34"
     inkscape:window-maximized="1"
     inkscape:current-layer="g1" />
  <g
     inkscape:groupmode="layer"
     inkscape:label="Image"
     id="g1">
    <rect
       style="fill:url(#radialGradient1);stroke-width:3.77953;stroke-linecap:round;stroke-linejoin:round"
       id="rect1"
       width="256"
       height="256"
       x="0"
       y="0"
       rx="50"
       ry="50" />
    <path
       id="rect2"
       style="baseline-shift:baseline;display:inline;overflow:visible;vector-effect:none;fill:#997400;stroke-linecap:round;stroke-linejoin:round;enable-background:accumulate;stop-color:#000000;stop-opacity:1;opacity:1"
       d="M 42.426407 155.56349 A 4.0004 4.0004 0 0 0 39.078698 154.42549 L -12.966847 161.21344 L -12.966847 154.39925 C -12.966847 150.03367 -16.605936 146.39458 -20.971517 146.39458 L -29.940172 146.39458 C -34.305753 146.39458 -37.946222 150.03505 -37.946222 154.40063 L -37.946222 168.53448 L -57.74245 168.53448 A 4.0004 4.0004 0 0 0 -57.743831 168.5331 C -62.112783 168.53454 -65.740161 172.16191 -65.741596 176.53087 L -65.751263 185.48985 A 4.0004 4.0004 0 0 0 -65.751263 185.49262 C -65.753694 189.86682 -62.120801 193.49972 -57.746593 193.49728 L -37.946222 193.50419 L -37.947604 207.6339 C -37.947604 211.99948 -34.307134 215.63995 -29.941553 215.63995 L -20.970135 215.63995 C -16.604554 215.63995 -12.966847 211.99948 -12.966847 207.6339 L -12.966847 200.82247 L 39.078698 207.61318 A 4.0004 4.0004 0 0 0 42.426407 206.47518 L 65.053824 183.84776 A 4.0004 4.0004 0 0 0 65.053824 178.19091 L 42.426407 155.56349 z M 38.161669 162.61246 L 56.568542 181.01934 L 38.161669 199.42621 L -12.966847 192.75703 L -12.965466 185.01891 L 22.627417 185.01891 A 4 4 0 0 0 26.62699 181.01934 A 4 4 0 0 0 25.455844 178.19091 A 4 4 0 0 0 22.627417 177.01976 L -12.965466 177.01976 L -12.966847 169.28164 L 38.161669 162.61246 z M -20.965992 154.39373 C -20.966107 154.39563 -20.967373 154.39849 -20.967373 154.40063 L -20.965992 165.72125 A 4 4 0 0 0 -20.965992 165.82068 L -20.967373 180.85637 A 4 4 0 0 0 -20.970135 181.01934 A 4 4 0 0 0 -20.967373 181.1823 L -20.965992 196.21799 A 4 4 0 0 0 -20.965992 196.31743 L -20.967373 207.63528 C -20.967373 207.63742 -20.967489 207.6389 -20.967373 207.6408 L -20.970135 207.6408 L -29.941553 207.6408 C -29.943699 207.6408 -29.945171 207.64069 -29.947077 207.6408 C -29.946962 207.63887 -29.947077 207.63746 -29.947077 207.63528 L -29.947077 189.74492 A 4 4 0 0 0 -29.940172 189.506 A 4 4 0 0 0 -29.947077 189.26431 L -29.948458 172.74812 A 4 4 0 0 0 -29.947077 172.70531 A 4 4 0 0 0 -29.941553 172.53405 A 4 4 0 0 0 -29.947077 172.31861 L -29.947077 154.40063 C -29.947077 154.39845 -29.946961 154.39704 -29.947077 154.39511 C -29.945171 154.39522 -29.943699 154.39511 -29.941553 154.39511 L -20.970135 154.39511 C -20.968724 154.39511 -20.967298 154.39378 -20.965992 154.39373 z M -37.946222 176.53363 L -37.946222 185.50228 L -57.747975 185.49676 A 4.0004 4.0004 0 0 0 -57.752118 185.49814 L -57.741069 176.53777 A 4.0004 4.0004 0 0 0 -57.741069 176.53501 L -37.946222 176.53363 z "
       transform="rotate(-45)" />
  </g>
</svg>
