<?xml version="1.0" encoding="UTF-8" standalone="no"?>
<!-- Created with Inkscape (http://www.inkscape.org/) -->

<svg
   version="1.1"
   id="svg1"
   width="256"
   height="256"
   viewBox="0 0 256 256"
   sodipodi:docname="jellyfin.svg"
   inkscape:version="1.4.3 (0d15f75, 2025-12-25)"
   xmlns:inkscape="http://www.inkscape.org/namespaces/inkscape"
   xmlns:sodipodi="http://sodipodi.sourceforge.net/DTD/sodipodi-0.dtd"
   xmlns:xlink="http://www.w3.org/1999/xlink"
   xmlns="http://www.w3.org/2000/svg"
   xmlns:svg="http://www.w3.org/2000/svg">
  <defs
     id="defs1">
    <inkscape:path-effect
       effect="fillet_chamfer"
       id="path-effect20"
       is_visible="true"
       lpeversion="1"
       nodesatellites_param="F,0,0,1,0,0,0,1 @ F,0,1,1,0,3,0,1 @ F,0,0,1,0,0,0,1 @ F,0,0,1,0,0,0,1 @ F,0,1,1,0,3,0,1 @ F,0,0,1,0,0,0,1 @ F,0,0,1,0,0,0,1 @ F,0,0,1,0,0,0,1 @ F,0,0,1,0,0,0,1 @ F,0,1,1,0,3,0,1 @ F,0,0,1,0,0,0,1 @ F,0,0,1,0,0,0,1 @ F,0,0,1,0,0,0,1 @ F,0,0,1,0,0,0,1 @ F,0,1,1,0,3,0,1 @ F,0,1,1,0,3,0,1 @ F,0,0,1,0,0,0,1 @ F,0,0,1,0,0,0,1 @ F,0,0,1,0,0,0,1 @ F,0,0,1,0,0,0,1 @ F,0,1,1,0,3,0,1 @ F,0,1,1,0,3,0,1 @ F,0,0,1,0,0,0,1 @ F,0,0,1,0,0,0,1 @ F,0,0,1,0,0,0,1 @ F,0,0,1,0,0,0,1 @ F,0,1,1,0,3,0,1 @ F,0,0,1,0,0,0,1 @ F,0,0,1,0,0,0,1 @ F,0,0,1,0,0,0,1 @ F,0,0,1,0,0,0,1 @ F,0,1,1,0,3,0,1 @ F,0,0,1,0,0,0,1 @ F,0,0,1,0,0,0,1 @ F,0,1,1,0,3,0,1 @ F,0,0,1,0,0,0,1 @ F,0,0,1,0,0,0,1 @ F,0,0,1,0,0,0,1 | F,0,1,1,0,3,0,1 @ F,0,1,1,0,3,0,1 @ F,0,1,1,0,3,0,1 | F,0,1,1,0,3,0,1 @ F,0,1,1,0,3,0,1 @ F,0,1,1,0,3,0,1"
       radius="4"
       unit="px"
       method="auto"
       mode="F"
       chamfer_steps="1"
       flexible="false"
       use_knot_distance="true"
       apply_no_radius="true"
       apply_with_radius="true"
       only_selected="true"
       hide_knots="false" />
    <inkscape:path-effect
       effect="fillet_chamfer"
       id="path-effect19"
       is_visible="true"
       lpeversion="1"
       nodesatellites_param="F,0,1,1,0,5,0,1 @ F,0,0,1,0,0,0,1 @ F,0,0,1,0,0,0,1 @ F,0,0,1,0,0,0,1 @ F,0,0,1,0,0,0,1 @ F,0,1,1,0,5,0,1 @ F,0,1,1,0,5,0,1 @ F,0,0,1,0,0,0,1 @ F,0,1,1,0,5,0,1 @ F,0,1,1,0,5,0,1 @ F,0,0,1,0,0,0,1 @ F,0,0,1,0,0,0,1 @ F,0,1,1,0,5,0,1 @ F,0,1,1,0,5,0,1 @ F,0,0,1,0,0,0,1 @ F,0,0,1,0,0,0,1 @ F,0,1,1,0,5,0,1 @ F,0,1,1,0,5,0,1 @ F,0,0,1,0,0,0,1 @ F,0,1,1,0,5,0,1 @ F,0,1,1,0,5,0,1 @ F,0,0,1,0,0,0,1 @ F,0,0,1,0,0,0,1 @ F,0,0,1,0,0,0,1 @ F,0,0,1,0,0,0,1 @ F,0,1,1,0,5,0,1 | F,0,0,1,0,0,0,1 @ F,0,0,1,0,0,0,1 @ F,0,0,1,0,0,0,1 | F,0,0,1,0,0,0,1 @ F,0,0,1,0,0,0,1 @ F,0,0,1,0,0,0,1"
       radius="5"
       unit="px"
       method="auto"
       mode="F"
       chamfer_steps="1"
       flexible="false"
       use_knot_distance="true"
       apply_no_radius="true"
       apply_with_radius="true"
       only_selected="true"
       hide_knots="false" />
    <inkscape:path-effect
       effect="fillet_chamfer"
       id="path-effect18"
       is_visible="true"
       lpeversion="1"
       nodesatellites_param="F,0,0,1,0,0,0,1 @ F,0,0,1,0,0,0,1 @ F,0,1,1,0,20,0,1 @ F,0,0,1,0,0,0,1 @ F,0,0,1,0,0,0,1 @ F,0,0,1,0,0,0,1 @ F,0,0,1,0,0,0,1 @ F,0,0,1,0,0,0,1 @ F,0,0,1,0,0,0,1 @ F,0,0,1,0,0,0,1 @ F,0,0,1,0,0,0,1 @ F,0,0,1,0,0,0,1 @ F,0,0,1,0,0,0,1 @ F,0,0,1,0,0,0,1 @ F,0,0,1,0,0,0,1 @ F,0,0,1,0,0,0,1 @ F,0,0,1,0,0,0,1 @ F,0,0,1,0,0,0,1 @ F,0,0,1,0,0,0,1 @ F,0,0,1,0,0,0,1 @ F,0,0,1,0,0,0,1 @ F,0,1,1,0,20,0,1 @ F,0,0,1,0,0,0,1 @ F,0,0,1,0,0,0,1 | F,0,0,1,0,0,0,1 @ F,0,0,1,0,0,0,1 @ F,0,0,1,0,0,0,1 | F,0,0,1,0,0,0,1 @ F,0,0,1,0,0,0,1 @ F,0,0,1,0,0,0,1"
       radius="20"
       unit="px"
       method="auto"
       mode="F"
       chamfer_steps="1"
       flexible="false"
       use_knot_distance="true"
       apply_no_radius="true"
       apply_with_radius="true"
       only_selected="true"
       hide_knots="false" />
    <linearGradient
       id="linearGradient4"
       inkscape:collect="always">
      <stop
         style="stop-color:#f6f5f4;stop-opacity:1"
         offset="0"
         id="stop4" />
      <stop
         style="stop-color:#dcdcdc;stop-opacity:1;"
         offset="0.22703545"
         id="stop1" />
      <stop
         style="stop-color:#4c3583;stop-opacity:1;"
         offset="1"
         id="stop5" />
    </linearGradient>
    <radialGradient
       inkscape:collect="always"
       xlink:href="#linearGradient4"
       id="radialGradient1"
       cx="37.809212"
       cy="31.332991"
       fx="37.809212"
       fy="31.332991"
       r="128"
       gradientUnits="userSpaceOnUse"
       gradientTransform="matrix(3.6495216,4.4212975,-4.5264534,3.7363213,9.3949722,-278.3572)" />
  </defs>
  <sodipodi:namedview
     id="namedview1"
     pagecolor="#ffffff"
     bordercolor="#000000"
     borderopacity="0.25"
     inkscape:showpageshadow="2"
     inkscape:pageopacity="0.0"
     inkscape:pagecheckerboard="0"
     inkscape:deskcolor="#d1d1d1"
     showguides="true"
     inkscape:zoom="0.99570023"
     inkscape:cx="186.80321"
     inkscape:cy="283.71993"
     inkscape:window-width="1470"
     inkscape:window-height="894"
     inkscape:window-x="0"
     inkscape:window-y="34"
     inkscape:window-maximized="1"
     inkscape:current-layer="g1" />
  <g
     inkscape:groupmode="layer"
     inkscape:label="Image"
     id="g1">
    <rect
       style="fill:url(#radialGradient1);stroke-width:3.77953;stroke-linecap:round;stroke-linejoin:round"
       id="rect1"
       width="256"
       height="256"
       x="0"
       y="0"
       rx="50"
       ry="50" />
    <path
       id="path1"
       style="baseline-shift:baseline;display:inline;overflow:visible;vector-effect:none;fill:#603e99;stroke-linecap:round;stroke-linejoin:round;enable-background:accumulate;stop-color:#000000;stop-opacity:1;opacity:1"
       d="M 128 76.078125 C 123.93181 76.078125 119.86357 77.98625 117.51562 81.800781 C 99.365935 103.89711 84.745805 129.58534 73.439453 158.33398 C 71.402896 162.12769 71.76145 166.59373 73.820312 169.79492 C 75.929455 173.07429 79.4909 175.24308 83.597656 175.94336 C 113.22947 180.9961 142.83199 180.48853 172.33789 175.95312 C 176.49382 175.31429 180.08547 173.12056 182.19141 169.82227 C 184.23055 166.62856 184.59506 162.20583 182.60938 158.42578 C 173.22829 131.14605 157.11596 106.0556 138.5293 81.873047 C 136.18853 78.009786 132.0941 76.078125 128 76.078125 z M 128 83.921875 C 129.45062 83.921875 130.90047 84.649389 131.73633 86.103516 A 4.0004 4.0004 0 0 0 132.03516 86.548828 C 150.49029 110.53756 166.1883 135.11006 175.15039 161.33789 A 4.0004 4.0004 0 0 0 175.46484 162.0332 C 176.31943 163.52489 176.15283 164.41555 175.44922 165.51758 C 174.74559 166.6196 173.20385 167.72701 171.12305 168.04688 C 142.32226 172.47413 113.61625 172.94597 84.941406 168.05664 C 82.827945 167.69626 81.253382 166.56226 80.548828 165.4668 C 79.844274 164.37133 79.676664 163.53171 80.535156 162.0332 A 4.0004 4.0004 0 0 0 80.789062 161.50586 C 91.882336 133.23344 106.18907 108.13936 123.88281 86.652344 A 4.0004 4.0004 0 0 0 124.26367 86.103516 C 125.09953 84.649389 126.54938 83.921875 128 83.921875 z M 127.84766 103.72266 A 4.0004 4.0004 0 0 0 124.59961 105.37305 C 124.40013 105.64803 124.20156 105.92211 124.00195 106.19727 L 124.02148 106.20312 A 4.0004 4.0004 0 0 0 123.98828 106.21484 C 119.71735 112.16775 115.72745 118.30113 112.00391 124.58398 C 107.74507 131.77371 103.84553 139.14823 100.27344 146.70312 C 99.365043 148.62508 98.46886 150.55599 97.589844 152.52734 A 4.0004 4.0004 0 0 0 100.80859 158.13281 C 106.0641 158.70782 111.32782 159.09199 116.61328 159.31055 A 4.0004 4.0004 0 0 0 116.61523 159.31055 C 122.89384 159.56736 129.2191 159.57601 135.50781 159.37305 C 138.65001 159.27195 141.85718 159.10434 145.01562 158.88477 C 148.51148 158.6451 152.02101 158.33722 155.52734 157.96094 A 4.0004 4.0004 0 0 0 158.76562 152.38281 C 151.60486 135.97483 142.10003 120.79399 131.83203 106.42578 A 4.0004 4.0004 0 0 0 131.83008 106.42383 C 131.57859 106.0725 131.33038 105.72861 131.08789 105.39062 A 4.0004 4.0004 0 0 0 127.84766 103.72266 z M 127.91016 114.83398 C 135.86336 126.2403 143.10902 138.08146 149.00195 150.50586 C 147.49046 150.63565 145.97581 150.80098 144.46875 150.9043 A 4.0004 4.0004 0 0 0 144.46484 150.9043 C 141.39922 151.11747 138.28522 151.27929 135.25 151.37695 C 129.14268 151.57407 123.00984 151.56445 116.94336 151.31641 L 116.94141 151.31641 C 113.70465 151.18254 110.50013 150.86508 107.28711 150.59766 C 107.36161 150.43952 107.43104 150.28134 107.50586 150.12305 C 110.97615 142.78346 114.75903 135.63043 118.88672 128.66211 C 121.69356 123.92602 124.7905 119.37141 127.91016 114.83398 z " />
  </g>
</svg>
