<?xml version="1.0" encoding="UTF-8" standalone="no"?>
<!-- Created with Inkscape (http://www.inkscape.org/) -->

<svg
   version="1.1"
   id="svg1"
   width="256"
   height="256"
   viewBox="0 0 256 256"
   sodipodi:docname="prowlarr.svg"
   inkscape:version="1.4.3 (0d15f75, 2025-12-25)"
   xmlns:inkscape="http://www.inkscape.org/namespaces/inkscape"
   xmlns:sodipodi="http://sodipodi.sourceforge.net/DTD/sodipodi-0.dtd"
   xmlns:xlink="http://www.w3.org/1999/xlink"
   xmlns="http://www.w3.org/2000/svg"
   xmlns:svg="http://www.w3.org/2000/svg">
  <defs
     id="defs1">
    <inkscape:path-effect
       effect="fillet_chamfer"
       id="path-effect20"
       is_visible="true"
       lpeversion="1"
       nodesatellites_param="F,0,0,1,0,0,0,1 @ F,0,1,1,0,3,0,1 @ F,0,0,1,0,0,0,1 @ F,0,0,1,0,0,0,1 @ F,0,1,1,0,3,0,1 @ F,0,0,1,0,0,0,1 @ F,0,0,1,0,0,0,1 @ F,0,0,1,0,0,0,1 @ F,0,0,1,0,0,0,1 @ F,0,1,1,0,3,0,1 @ F,0,0,1,0,0,0,1 @ F,0,0,1,0,0,0,1 @ F,0,0,1,0,0,0,1 @ F,0,0,1,0,0,0,1 @ F,0,1,1,0,3,0,1 @ F,0,1,1,0,3,0,1 @ F,0,0,1,0,0,0,1 @ F,0,0,1,0,0,0,1 @ F,0,0,1,0,0,0,1 @ F,0,0,1,0,0,0,1 @ F,0,1,1,0,3,0,1 @ F,0,1,1,0,3,0,1 @ F,0,0,1,0,0,0,1 @ F,0,0,1,0,0,0,1 @ F,0,0,1,0,0,0,1 @ F,0,0,1,0,0,0,1 @ F,0,1,1,0,3,0,1 @ F,0,0,1,0,0,0,1 @ F,0,0,1,0,0,0,1 @ F,0,0,1,0,0,0,1 @ F,0,0,1,0,0,0,1 @ F,0,1,1,0,3,0,1 @ F,0,0,1,0,0,0,1 @ F,0,0,1,0,0,0,1 @ F,0,1,1,0,3,0,1 @ F,0,0,1,0,0,0,1 @ F,0,0,1,0,0,0,1 @ F,0,0,1,0,0,0,1 | F,0,1,1,0,3,0,1 @ F,0,1,1,0,3,0,1 @ F,0,1,1,0,3,0,1 | F,0,1,1,0,3,0,1 @ F,0,1,1,0,3,0,1 @ F,0,1,1,0,3,0,1"
       radius="4"
       unit="px"
       method="auto"
       mode="F"
       chamfer_steps="1"
       flexible="false"
       use_knot_distance="true"
       apply_no_radius="true"
       apply_with_radius="true"
       only_selected="true"
       hide_knots="false" />
    <inkscape:path-effect
       effect="fillet_chamfer"
       id="path-effect19"
       is_visible="true"
       lpeversion="1"
       nodesatellites_param="F,0,1,1,0,5,0,1 @ F,0,0,1,0,0,0,1 @ F,0,0,1,0,0,0,1 @ F,0,0,1,0,0,0,1 @ F,0,0,1,0,0,0,1 @ F,0,1,1,0,5,0,1 @ F,0,1,1,0,5,0,1 @ F,0,0,1,0,0,0,1 @ F,0,1,1,0,5,0,1 @ F,0,1,1,0,5,0,1 @ F,0,0,1,0,0,0,1 @ F,0,0,1,0,0,0,1 @ F,0,1,1,0,5,0,1 @ F,0,1,1,0,5,0,1 @ F,0,0,1,0,0,0,1 @ F,0,0,1,0,0,0,1 @ F,0,1,1,0,5,0,1 @ F,0,1,1,0,5,0,1 @ F,0,0,1,0,0,0,1 @ F,0,1,1,0,5,0,1 @ F,0,1,1,0,5,0,1 @ F,0,0,1,0,0,0,1 @ F,0,0,1,0,0,0,1 @ F,0,0,1,0,0,0,1 @ F,0,0,1,0,0,0,1 @ F,0,1,1,0,5,0,1 | F,0,0,1,0,0,0,1 @ F,0,0,1,0,0,0,1 @ F,0,0,1,0,0,0,1 | F,0,0,1,0,0,0,1 @ F,0,0,1,0,0,0,1 @ F,0,0,1,0,0,0,1"
       radius="5"
       unit="px"
       method="auto"
       mode="F"
       chamfer_steps="1"
       flexible="false"
       use_knot_distance="true"
       apply_no_radius="true"
       apply_with_radius="true"
       only_selected="true"
       hide_knots="false" />
    <inkscape:path-effect
       effect="fillet_chamfer"
       id="path-effect18"
       is_visible="true"
       lpeversion="1"
       nodesatellites_param="F,0,0,1,0,0,0,1 @ F,0,0,1,0,0,0,1 @ F,0,1,1,0,20,0,1 @ F,0,0,1,0,0,0,1 @ F,0,0,1,0,0,0,1 @ F,0,0,1,0,0,0,1 @ F,0,0,1,0,0,0,1 @ F,0,0,1,0,0,0,1 @ F,0,0,1,0,0,0,1 @ F,0,0,1,0,0,0,1 @ F,0,0,1,0,0,0,1 @ F,0,0,1,0,0,0,1 @ F,0,0,1,0,0,0,1 @ F,0,0,1,0,0,0,1 @ F,0,0,1,0,0,0,1 @ F,0,0,1,0,0,0,1 @ F,0,0,1,0,0,0,1 @ F,0,0,1,0,0,0,1 @ F,0,0,1,0,0,0,1 @ F,0,0,1,0,0,0,1 @ F,0,0,1,0,0,0,1 @ F,0,1,1,0,20,0,1 @ F,0,0,1,0,0,0,1 @ F,0,0,1,0,0,0,1 | F,0,0,1,0,0,0,1 @ F,0,0,1,0,0,0,1 @ F,0,0,1,0,0,0,1 | F,0,0,1,0,0,0,1 @ F,0,0,1,0,0,0,1 @ F,0,0,1,0,0,0,1"
       radius="20"
       unit="px"
       method="auto"
       mode="F"
       chamfer_steps="1"
       flexible="false"
       use_knot_distance="true"
       apply_no_radius="true"
       apply_with_radius="true"
       only_selected="true"
       hide_knots="false" />
    <linearGradient
       id="linearGradient4"
       inkscape:collect="always">
      <stop
         style="stop-color:#f6f5f4;stop-opacity:1"
         offset="0"
         id="stop4" />
      <stop
         style="stop-color:#dcdcdc;stop-opacity:1;"
         offset="0.22703545"
         id="stop1" />
      <stop
         style="stop-color:#ff7800;stop-opacity:1"
         offset="1"
         id="stop5" />
    </linearGradient>
    <radialGradient
       inkscape:collect="always"
       xlink:href="#linearGradient4"
       id="radialGradient1"
       cx="37.809212"
       cy="31.332991"
       fx="37.809212"
       fy="31.332991"
       r="128"
       gradientUnits="userSpaceOnUse"
       gradientTransform="matrix(3.6495216,4.4212975,-4.5264534,3.7363213,9.3949722,-278.3572)" />
  </defs>
  <sodipodi:namedview
     id="namedview1"
     pagecolor="#ffffff"
     bordercolor="#000000"
     borderopacity="0.25"
     inkscape:showpageshadow="2"
     inkscape:pageopacity="0.0"
     inkscape:pagecheckerboard="0"
     inkscape:deskcolor="#d1d1d1"
     showguides="true"
     inkscape:zoom="0.75382581"
     inkscape:cx="88.87995"
     inkscape:cy="170.46378"
     inkscape:window-width="1470"
     inkscape:window-height="894"
     inkscape:window-x="0"
     inkscape:window-y="34"
     inkscape:window-maximized="1"
     inkscape:current-layer="g1" />
  <g
     inkscape:groupmode="layer"
     inkscape:label="Image"
     id="g1">
    <rect
       style="fill:url(#radialGradient1);stroke-width:3.77953;stroke-linecap:round;stroke-linejoin:round"
       id="rect1"
       width="256"
       height="256"
       x="0"
       y="0"
       rx="50"
       ry="50" />
    <path
       id="line1"
       style="baseline-shift:baseline;display:inline;overflow:visible;vector-effect:none;fill:#c64600;stroke-linecap:round;stroke-linejoin:round;enable-background:accumulate;stop-color:#000000;stop-opacity:1;opacity:1"
       d="M 83.980469 80.017578 C 83.691741 80.016911 83.403621 80.031272 83.119141 80.060547 C 82.360526 80.138614 81.622283 80.32173 80.9375 80.605469 C 78.198367 81.740424 75.997327 84.607914 76 88.003906 L 76 132 C 76 158.6594 99.51761 180 128 180 C 156.48239 180 180 158.6594 180 132 L 180 88 A 4.0004 4.0004 0 0 0 180 87.992188 C 179.994 84.600153 177.79072 81.743753 175.05273 80.613281 C 172.31475 79.482809 168.73704 79.953642 166.33984 82.353516 A 4.0004 4.0004 0 0 0 166.15039 82.556641 L 157.38867 92.636719 C 153.89856 90.446211 150.22754 88.680417 146.44531 87.339844 A 4 4 0 0 0 144 86.505859 A 4 4 0 0 0 143.90039 86.507812 C 139.10081 85.064565 134.15177 84.288792 129.19141 84.181641 A 4 4 0 0 0 128 84 A 4 4 0 0 0 126.80859 84.181641 C 121.84677 84.28837 116.89663 85.064107 112.0957 86.507812 A 4 4 0 0 0 112 86.505859 A 4 4 0 0 0 109.55859 87.337891 C 105.77514 88.678368 102.10252 90.443674 98.611328 92.634766 L 89.849609 82.546875 A 4.0004 4.0004 0 0 0 89.660156 82.34375 C 88.085161 80.767 86.001566 80.02225 83.980469 80.017578 z M 84 88.011719 L 94.779297 100.42383 A 4.0004 4.0004 0 0 0 100.14844 101.03711 C 102.64718 99.224666 105.27756 97.685601 108 96.417969 L 108 108 A 4 4 0 0 0 112 112 A 4 4 0 0 0 116 108 L 116 93.535156 C 118.63098 92.847135 121.30789 92.389717 124 92.162109 L 124 108 A 4 4 0 0 0 128 112 A 4 4 0 0 0 132 108 L 132 92.162109 C 134.69211 92.389717 137.36902 92.847135 140 93.535156 L 140 108 A 4 4 0 0 0 144 112 A 4 4 0 0 0 148 108 L 148 96.417969 C 150.72244 97.685601 153.35282 99.224666 155.85156 101.03711 A 4.0004 4.0004 0 0 0 161.21875 100.42383 L 172 88.023438 L 172 132 C 172 152.73304 154.60312 169.99999 132 171.83789 L 132 161.65625 L 138.82812 154.82812 A 4 4 0 0 0 138.82812 149.17188 A 4 4 0 0 0 133.17188 149.17188 L 128 154.34375 L 122.82812 149.17188 A 4 4 0 0 0 120 148 A 4 4 0 0 0 117.17188 149.17188 A 4 4 0 0 0 117.17188 154.82812 L 124 161.65625 L 124 171.83789 C 101.39688 169.99999 84 152.73304 84 132 L 84 88.011719 z M 106 128 A 6 6 0 0 0 100 134 A 6 6 0 0 0 106 140 A 6 6 0 0 0 112 134 A 6 6 0 0 0 106 128 z M 150 128 A 6 6 0 0 0 144 134 A 6 6 0 0 0 150 140 A 6 6 0 0 0 156 134 A 6 6 0 0 0 150 128 z " />
  </g>
</svg>
